<svg width="28" height="10" viewBox="0 0 28 10" fill="none" xmlns="http://www.w3.org/2000/svg">
<rect width="28" height="10" rx="5" fill="#DEDFE2"/>
<path d="M3.56461 8V2.4H5.90061C6.25795 2.4 6.55928 2.45333 6.80462 2.56C7.04995 2.66667 7.23395 2.82667 7.35662 3.04C7.48462 3.248 7.54861 3.504 7.54861 3.808C7.54861 4.112 7.46328 4.37067 7.29261 4.584C7.12728 4.79733 6.89528 4.944 6.59662 5.024V4.864C6.84728 4.91733 7.06595 5.01333 7.25261 5.152C7.43928 5.28533 7.58328 5.45333 7.68462 5.656C7.79128 5.85867 7.84461 6.09067 7.84461 6.352C7.84461 6.61867 7.80195 6.856 7.71662 7.064C7.63662 7.26667 7.51395 7.43733 7.34862 7.576C7.18862 7.71467 6.99395 7.82133 6.76462 7.896C6.53528 7.96533 6.27395 8 5.98061 8H3.56461ZM4.42861 7.168H5.93262C6.15128 7.168 6.33528 7.136 6.48462 7.072C6.63928 7.008 6.75662 6.91467 6.83662 6.792C6.92195 6.664 6.96461 6.512 6.96461 6.336C6.96461 6.17067 6.91928 6.02933 6.82862 5.912C6.74328 5.79467 6.62061 5.70667 6.46061 5.648C6.30061 5.584 6.11128 5.552 5.89262 5.552H4.42861V7.168ZM4.42861 4.72H5.85261C6.01262 4.72 6.15395 4.688 6.27661 4.624C6.40462 4.56 6.50328 4.472 6.57262 4.36C6.64728 4.248 6.68462 4.12 6.68462 3.976C6.68462 3.736 6.60462 3.552 6.44462 3.424C6.28462 3.296 6.05528 3.232 5.75661 3.232H4.42861V4.72ZM9.40993 8V2.4H12.9379V3.232H10.2739V7.168H12.9379V8H9.40993ZM9.80193 5.544V4.712H12.4979V5.544H9.80193ZM15.788 8V3.232H14.22V2.4H18.268V3.232H16.652V8H15.788ZM18.7509 8L20.9189 2.4H21.7989L23.9509 8H23.0309L21.7509 4.624C21.7349 4.58667 21.7029 4.496 21.6549 4.352C21.6123 4.208 21.5616 4.048 21.5029 3.872C21.4443 3.696 21.3909 3.536 21.3429 3.392C21.2949 3.24267 21.2629 3.14667 21.2469 3.104L21.4309 3.096C21.3989 3.18667 21.3589 3.30133 21.3109 3.44C21.2683 3.57867 21.2203 3.72533 21.1669 3.88C21.1189 4.03467 21.0709 4.18133 21.0229 4.32C20.9749 4.45333 20.9349 4.56533 20.9029 4.656L19.6309 8H18.7509ZM19.7109 6.608L20.0309 5.776H22.5749L22.9429 6.608H19.7109Z" fill="#23293E"/>
</svg>
