<svg width="72" height="72" viewBox="0 0 72 72" fill="none" xmlns="http://www.w3.org/2000/svg">
<path fill-rule="evenodd" clip-rule="evenodd" d="M19.575 7.20192C22.4053 6.97594 25.0922 5.8627 27.253 4.02072C29.6935 1.94212 32.7944 0.800537 36.0002 0.800537C39.2059 0.800537 42.3068 1.94212 44.7474 4.02072C46.9081 5.8627 49.595 6.97594 52.4254 7.20192C55.6217 7.45737 58.6225 8.84296 60.8898 11.1103C63.1571 13.3776 64.5427 16.3784 64.7982 19.5747C65.0226 22.4039 66.1358 25.0923 67.9794 27.2527C70.058 29.6932 71.1995 32.7942 71.1995 35.9999C71.1995 39.2056 70.058 42.3066 67.9794 44.7471C66.1374 46.9079 65.0241 49.5948 64.7982 52.4251C64.5427 55.6214 63.1571 58.6222 60.8898 60.8895C58.6225 63.1569 55.6217 64.5425 52.4254 64.7979C49.595 65.0239 46.9081 66.1371 44.7474 67.9791C42.3068 70.0577 39.2059 71.1993 36.0002 71.1993C32.7944 71.1993 29.6935 70.0577 27.253 67.9791C25.0922 66.1371 22.4053 65.0239 19.575 64.7979C16.3787 64.5425 13.3779 63.1569 11.1105 60.8895C8.8432 58.6222 7.45761 55.6214 7.20216 52.4251C6.97618 49.5948 5.86294 46.9079 4.02096 44.7471C1.94237 42.3066 0.800781 39.2056 0.800781 35.9999C0.800781 32.7942 1.94237 29.6932 4.02096 27.2527C5.86294 25.0919 6.97618 22.4051 7.20216 19.5747C7.45761 16.3784 8.8432 13.3776 11.1105 11.1103C13.3779 8.84296 16.3787 7.45737 19.575 7.20192ZM52.311 30.3107C53.1125 29.4809 53.556 28.3694 53.5459 27.2158C53.5359 26.0621 53.0732 24.9585 52.2574 24.1427C51.4416 23.3269 50.338 22.8642 49.1843 22.8541C48.0307 22.8441 46.9192 23.2876 46.0894 24.0891L31.6002 38.5783L25.911 32.8891C25.0811 32.0876 23.9697 31.6441 22.816 31.6542C21.6623 31.6642 20.5588 32.1269 19.743 32.9427C18.9272 33.7585 18.4644 34.8621 18.4544 36.0158C18.4444 37.1694 18.8879 38.2809 19.6894 39.1107L28.4894 47.9107C29.3145 48.7356 30.4334 49.199 31.6002 49.199C32.7669 49.199 33.8858 48.7356 34.711 47.9107L52.311 30.3107Z" fill="#93E396"/>
</svg>
