<svg width="72" height="72" viewBox="0 0 72 72" fill="none" xmlns="http://www.w3.org/2000/svg">
<path fill-rule="evenodd" clip-rule="evenodd" d="M36.0008 71.2C45.3364 71.2 54.2897 67.4915 60.8909 60.8902C67.4922 54.2889 71.2008 45.3357 71.2008 36C71.2008 26.6644 67.4922 17.7112 60.8909 11.1099C54.2897 4.50861 45.3364 0.800049 36.0008 0.800049C26.6652 0.800049 17.7119 4.50861 11.1106 11.1099C4.50934 17.7112 0.800781 26.6644 0.800781 36C0.800781 45.3357 4.50934 54.2889 11.1106 60.8902C17.7119 67.4915 26.6652 71.2 36.0008 71.2ZM30.3116 24.0892C29.4817 23.2878 28.3703 22.8443 27.2166 22.8543C26.063 22.8643 24.9594 23.327 24.1436 24.1428C23.3278 24.9586 22.865 26.0622 22.855 27.2159C22.845 28.3695 23.2885 29.481 24.09 30.3108L29.7792 36L24.09 41.6892C23.6697 42.0951 23.3345 42.5807 23.1039 43.1175C22.8733 43.6543 22.752 44.2317 22.7469 44.8159C22.7418 45.4001 22.8531 45.9795 23.0744 46.5202C23.2956 47.061 23.6223 47.5523 24.0354 47.9654C24.4486 48.3785 24.9398 48.7052 25.4806 48.9265C26.0213 49.1477 26.6007 49.259 27.1849 49.2539C27.7692 49.2489 28.3465 49.1275 28.8834 48.8969C29.4202 48.6663 29.9057 48.3311 30.3116 47.9108L36.0008 42.2216L41.69 47.9108C42.5198 48.7123 43.6313 49.1558 44.7849 49.1458C45.9386 49.1358 47.0422 48.673 47.858 47.8572C48.6738 47.0415 49.1365 45.9379 49.1465 44.7842C49.1566 43.6305 48.7131 42.5191 47.9116 41.6892L42.2224 36L47.9116 30.3108C48.7131 29.481 49.1566 28.3695 49.1465 27.2159C49.1365 26.0622 48.6738 24.9586 47.858 24.1428C47.0422 23.327 45.9386 22.8643 44.7849 22.8543C43.6313 22.8443 42.5198 23.2878 41.69 24.0892L36.0008 29.7784L30.3116 24.0892Z" fill="#EA5D69"/>
</svg>
