<svg width="70" height="72" viewBox="0 0 70 72" fill="none" xmlns="http://www.w3.org/2000/svg">
<path d="M36 3.26272C36 1.46077 34.5362 -0.0153458 32.7417 0.147742C27.2379 0.647917 21.9076 2.41029 17.1724 5.3158C11.5075 8.79172 6.91546 13.768 3.90495 19.6933C0.894441 25.6187 -0.417001 32.2617 0.115913 38.8866C0.648826 45.5114 3.00529 51.8594 6.92424 57.2274C10.8432 62.5953 16.1717 66.7735 22.3193 69.2992C28.4669 71.8249 35.1938 72.5995 41.7546 71.5371C48.3153 70.4747 54.454 67.6168 59.4904 63.2801C63.7003 59.655 67.0027 55.1149 69.1557 50.0251C69.8577 48.3655 68.8976 46.5216 67.1813 45.9727C65.465 45.4238 63.6451 46.3801 62.9099 48.0252C61.1459 51.9727 58.529 55.4966 55.2325 58.3352C51.109 61.8859 46.083 64.2257 40.7115 65.0956C35.3399 65.9654 29.8324 65.3312 24.7991 63.2633C19.7658 61.1954 15.4032 57.7745 12.1946 53.3796C8.98598 48.9847 7.05666 43.7874 6.62034 38.3633C6.18402 32.9393 7.25775 27.5004 9.72257 22.6491C12.1874 17.7978 15.9471 13.7236 20.5851 10.8777C24.293 8.60252 28.4466 7.18348 32.7439 6.70583C34.5348 6.50677 36 5.06467 36 3.26272Z" fill="#32FE9A"/>
</svg>
