<svg width="124" height="64" viewBox="0 0 124 64" fill="none" xmlns="http://www.w3.org/2000/svg">
<path opacity="0.85" d="M91.5566 41.9848H102.704V31.8353H107.418C116.221 31.8353 123.28 25.0375 123.28 16.9374C123.28 8.73322 116.065 2.22192 107.418 2.22192H91.5566V41.9848ZM107.418 21.5735L102.704 21.5474V12.5098H107.418C110.387 12.5098 112.523 14.4371 112.523 16.9895C112.523 19.568 110.413 21.5995 107.418 21.5735Z" fill="white"/>
<mask id="mask0_8502_19202" style="mask-type:alpha" maskUnits="userSpaceOnUse" x="47" y="0" width="43" height="42">
<path fill-rule="evenodd" clip-rule="evenodd" d="M89.6412 20.9731C89.6412 32.5562 80.2512 41.9461 68.6681 41.9461C62.5715 41.9461 57.0824 39.3448 53.2503 35.1916L47.3062 29.2361C47.3062 29.2361 48.9228 25.6919 48.9228 20.9731C48.9228 16.2543 47.3062 12.6943 47.3062 12.6943H49.3922C52.6032 5.22808 60.0251 0 68.6681 0C80.2512 0 89.6412 9.38996 89.6412 20.9731ZM77.5093 20.9731C77.5093 25.8559 73.551 29.8143 68.6681 29.8143C63.7852 29.8143 59.8269 25.8559 59.8269 20.9731C59.8269 16.0902 63.7852 12.1319 68.6681 12.1319C73.551 12.1319 77.5093 16.0902 77.5093 20.9731Z" fill="url(#paint0_linear_8502_19202)"/>
</mask>
<g mask="url(#mask0_8502_19202)">
<path fill-rule="evenodd" clip-rule="evenodd" d="M89.6409 20.9731C89.6409 32.5562 80.251 41.9461 68.6678 41.9461C62.5712 41.9461 57.0822 39.3448 53.2501 35.1916L47.3059 29.2361C47.3059 29.2361 48.9226 25.6919 48.9226 20.9731C48.9226 16.2543 47.3059 12.6943 47.3059 12.6943H49.392C52.6029 5.22808 60.0248 0 68.6678 0C80.251 0 89.6409 9.38996 89.6409 20.9731ZM77.5091 20.9731C77.5091 25.8559 73.5507 29.8143 68.6678 29.8143C63.785 29.8143 59.8266 25.8559 59.8266 20.9731C59.8266 16.0902 63.785 12.1319 68.6678 12.1319C73.5507 12.1319 77.5091 16.0902 77.5091 20.9731Z" fill="url(#paint1_linear_8502_19202)"/>
<path opacity="0.4" d="M47.3059 20.7104V12.7517L47.3156 12.7555C48.7827 13.3396 49.9516 14.5943 50.9608 15.6776C51.1684 15.9004 51.3692 16.1159 51.5644 16.3168L62.4255 27.2482C62.4927 27.3122 62.5863 27.3971 62.6958 27.4927C56.7193 23.3771 53.4039 21.7019 47.3059 20.7104Z" fill="#1E2337"/>
</g>
<path d="M44.0476 0C32.4644 0 23.0745 9.38996 23.0745 20.9731C23.0745 32.5562 32.4644 41.9461 44.0476 41.9461C48.6471 41.9461 52.9009 40.4655 56.3582 37.9549L47.3159 29.1905C46.3049 29.593 45.2021 29.8143 44.0476 29.8143C39.1647 29.8143 35.2063 25.8559 35.2063 20.9731C35.2063 16.0902 39.1647 12.1319 44.0476 12.1319C45.2021 12.1319 46.3049 12.3532 47.3159 12.7556C49.0847 13.4597 50.42 15.1387 51.5648 16.3169L62.4258 27.2482C62.6693 27.4803 63.2603 27.9851 63.6881 28.2852C63.926 28.4521 64.3015 28.6754 64.63 28.844C64.9702 29.0186 65.2593 29.1355 65.2593 29.1355C65.2593 29.1355 63.6426 25.6791 63.6426 20.998C63.6426 16.3169 65.2593 12.8605 65.2593 12.8605L58.4548 6.08377C56.8476 4.47873 55.1747 3.04622 53.1234 2.06008C50.377 0.739738 47.2987 0 44.0476 0Z" fill="url(#paint2_linear_8502_19202)"/>
<path opacity="0.3" fill-rule="evenodd" clip-rule="evenodd" d="M47.3037 29.2031C48.396 31.6296 50.1056 35.9434 50.1056 41.0657C52.3758 40.3819 54.4837 39.3237 56.3576 37.9628L47.3154 29.1985C47.3115 29.2 47.3076 29.2016 47.3037 29.2031Z" fill="#262D47"/>
<path opacity="0.85" d="M13.0567 31.4856V2.22192L0.906738 2.22192V41.9461H23.655V31.4856H13.0567Z" fill="white"/>
<path opacity="0.7" d="M1.31503 63V53.2072H3.03576L6.60313 59.0129L5.59588 58.9989L9.20522 53.2072H10.842V63H9.03734V59.3207C9.03734 58.4813 9.05599 57.7259 9.0933 57.0544C9.13993 56.3829 9.21454 55.716 9.31713 55.0539L9.54097 55.6554L6.50521 60.342H5.58189L2.64405 55.6974L2.83991 55.0539C2.9425 55.6787 3.01245 56.3223 3.04975 56.9844C3.09639 57.6373 3.1197 58.416 3.1197 59.3207V63H1.31503ZM20.7767 63L24.5958 53.2072H26.3026L30.0938 63H28.2052L26.1067 57.4321C26.0601 57.3202 25.9948 57.143 25.9109 56.9005C25.8363 56.658 25.7523 56.3969 25.6591 56.1171C25.5658 55.828 25.4819 55.5621 25.4072 55.3197C25.3326 55.0678 25.2767 54.886 25.2394 54.7741L25.5891 54.7601C25.5332 54.9466 25.4679 55.1564 25.3933 55.3896C25.3186 55.6228 25.2394 55.8653 25.1554 56.1171C25.0715 56.3689 24.9876 56.6114 24.9036 56.8445C24.829 57.0777 24.7591 57.2875 24.6938 57.4741L22.5953 63H20.7767ZM22.5114 60.7616L23.1409 59.1808H27.6036L28.2751 60.7616H22.5114ZM40.0299 63V53.2072H44.2827C44.8703 53.2072 45.4066 53.3471 45.8915 53.6269C46.3765 53.8974 46.7589 54.2704 47.0387 54.7461C47.3278 55.2124 47.4724 55.7393 47.4724 56.3269C47.4724 56.8865 47.3278 57.4041 47.0387 57.8798C46.7589 58.3461 46.3765 58.7192 45.8915 58.9989C45.4159 59.2694 44.8796 59.4046 44.2827 59.4046H41.8066V63H40.0299ZM45.7097 63L43.2195 58.5793L45.0941 58.2295L47.8641 63.014L45.7097 63ZM41.8066 57.8238H44.2967C44.5672 57.8238 44.8003 57.7632 44.9962 57.6419C45.2014 57.5114 45.3599 57.3342 45.4719 57.1103C45.5838 56.8865 45.6397 56.6394 45.6397 56.3689C45.6397 56.0611 45.5698 55.7953 45.4299 55.5715C45.29 55.3476 45.0941 55.1704 44.8423 55.0399C44.5905 54.9093 44.3014 54.844 43.975 54.844H41.8066V57.8238ZM59.6191 60.0762L59.3394 58.2715L64.3756 53.2072H66.656L59.6191 60.0762ZM58.1782 63V53.2072H59.9969V63H58.1782ZM64.5995 63L60.8922 58.0616L62.1793 56.9565L66.8098 63H64.5995ZM76.8457 63V53.2072H83.253V54.858H78.6364V61.3492H83.3089V63H76.8457ZM77.6851 58.8031V57.1803H82.5395V58.8031H77.6851ZM95.9416 63V54.886H93.1437V53.2072H100.642V54.886H97.7603V63H95.9416ZM113.926 63.1399C113.357 63.1399 112.834 63.0699 112.359 62.9301C111.883 62.7808 111.454 62.5617 111.072 62.2725C110.689 61.9834 110.349 61.6337 110.05 61.2233L111.24 59.8803C111.697 60.5145 112.144 60.9528 112.583 61.1953C113.021 61.4378 113.515 61.5591 114.065 61.5591C114.383 61.5591 114.672 61.5124 114.933 61.4192C115.194 61.3166 115.399 61.1813 115.548 61.0135C115.698 60.8363 115.772 60.6357 115.772 60.4119C115.772 60.2534 115.74 60.1088 115.674 59.9782C115.618 59.8383 115.53 59.7171 115.409 59.6145C115.287 59.5026 115.138 59.4 114.961 59.3067C114.784 59.2135 114.583 59.1342 114.359 59.0689C114.135 59.0036 113.888 58.943 113.618 58.887C113.105 58.7844 112.657 58.6492 112.275 58.4813C111.892 58.3041 111.571 58.0896 111.31 57.8378C111.048 57.5767 110.857 57.2875 110.736 56.9704C110.615 56.644 110.554 56.2756 110.554 55.8653C110.554 55.4549 110.643 55.0772 110.82 54.7321C111.006 54.387 111.258 54.0886 111.575 53.8368C111.892 53.5849 112.261 53.3891 112.681 53.2492C113.1 53.1093 113.553 53.0393 114.038 53.0393C114.588 53.0393 115.077 53.1046 115.506 53.2352C115.945 53.3658 116.327 53.5616 116.654 53.8228C116.989 54.0746 117.264 54.3823 117.479 54.7461L116.276 55.9352C116.089 55.6461 115.879 55.4083 115.646 55.2217C115.413 55.0259 115.161 54.8813 114.891 54.7881C114.62 54.6855 114.336 54.6342 114.038 54.6342C113.702 54.6342 113.408 54.6808 113.156 54.7741C112.914 54.8673 112.722 55.0026 112.583 55.1798C112.443 55.3476 112.373 55.5528 112.373 55.7953C112.373 55.9818 112.415 56.1497 112.499 56.2989C112.583 56.4388 112.699 56.5647 112.848 56.6767C113.007 56.7886 113.207 56.8865 113.45 56.9704C113.692 57.0544 113.968 57.129 114.275 57.1943C114.788 57.2969 115.25 57.4368 115.66 57.614C116.071 57.7818 116.42 57.987 116.71 58.2295C116.999 58.4627 117.218 58.7331 117.367 59.0409C117.516 59.3394 117.591 59.6751 117.591 60.0482C117.591 60.6917 117.437 61.2466 117.129 61.7129C116.831 62.1699 116.406 62.5244 115.856 62.7762C115.306 63.0187 114.662 63.1399 113.926 63.1399Z" fill="#E1E2E3"/>
<defs>
<linearGradient id="paint0_linear_8502_19202" x1="81.7878" y1="5.82056" x2="56.7483" y2="38.8141" gradientUnits="userSpaceOnUse">
<stop stop-color="#FF52BC"/>
<stop offset="0.516172" stop-color="#C83E93"/>
<stop offset="1" stop-color="#861F5E"/>
</linearGradient>
<linearGradient id="paint1_linear_8502_19202" x1="81.7876" y1="5.82056" x2="56.7481" y2="38.8141" gradientUnits="userSpaceOnUse">
<stop stop-color="#FF52BC"/>
<stop offset="0.516172" stop-color="#C83E93"/>
<stop offset="1" stop-color="#861F5E"/>
</linearGradient>
<linearGradient id="paint2_linear_8502_19202" x1="56.6633" y1="37.5931" x2="28.7209" y2="10.7572" gradientUnits="userSpaceOnUse">
<stop stop-color="#00FFFF"/>
<stop offset="1" stop-color="#01CDFD"/>
</linearGradient>
</defs>
</svg>
