<svg width="92" height="31" viewBox="0 0 92 31" fill="none" xmlns="http://www.w3.org/2000/svg">
<path opacity="0.85" d="M67.8391 31H76.0699V23.506H79.5506C86.0506 23.506 91.2622 18.4868 91.2622 12.506C91.2622 6.44832 85.9353 1.64062 79.5506 1.64062H67.8391V31ZM79.5506 15.9291L76.0699 15.9099V9.23678H79.5506C81.743 9.23678 83.3199 10.6599 83.3199 12.5445C83.3199 14.4483 81.7622 15.9483 79.5506 15.9291Z" fill="white"/>
<mask id="mask0_8849_21563" style="mask-type:alpha" maskUnits="userSpaceOnUse" x="35" y="0" width="32" height="31">
<path fill-rule="evenodd" clip-rule="evenodd" d="M66.4248 15.4857C66.4248 24.0383 59.4916 30.9714 50.9391 30.9714C46.4376 30.9714 42.3847 29.0507 39.5552 25.9841L35.1663 21.5868C35.1663 21.5868 36.3599 18.9699 36.3599 15.4857C36.3599 12.0015 35.1663 9.37302 35.1663 9.37302H36.7065C39.0774 3.86022 44.5574 0 50.9391 0C59.4916 0 66.4248 6.93319 66.4248 15.4857ZM57.4671 15.4857C57.4671 19.091 54.5444 22.0137 50.9391 22.0137C47.3338 22.0137 44.4111 19.091 44.4111 15.4857C44.4111 11.8804 47.3338 8.95771 50.9391 8.95771C54.5444 8.95771 57.4671 11.8804 57.4671 15.4857Z" fill="url(#paint0_linear_8849_21563)"/>
</mask>
<g mask="url(#mask0_8849_21563)">
<path fill-rule="evenodd" clip-rule="evenodd" d="M66.4246 15.4857C66.4246 24.0383 59.4914 30.9714 50.9389 30.9714C46.4373 30.9714 42.3844 29.0507 39.555 25.9841L35.166 21.5868C35.166 21.5868 36.3597 18.9699 36.3597 15.4857C36.3597 12.0015 35.166 9.37302 35.166 9.37302H36.7063C39.0771 3.86022 44.5572 0 50.9389 0C59.4914 0 66.4246 6.93319 66.4246 15.4857ZM57.4669 15.4857C57.4669 19.091 54.5442 22.0137 50.9389 22.0137C47.3335 22.0137 44.4108 19.091 44.4108 15.4857C44.4108 11.8804 47.3335 8.95771 50.9389 8.95771C54.5442 8.95771 57.4669 11.8804 57.4669 15.4857Z" fill="url(#paint1_linear_8849_21563)"/>
<path opacity="0.4" d="M35.166 15.2919V9.41553L35.1731 9.41835C36.2564 9.84959 37.1195 10.776 37.8647 11.5759C38.0179 11.7404 38.1662 11.8995 38.3103 12.0478L46.3297 20.1192C46.3793 20.1665 46.4485 20.2291 46.5293 20.2997C42.1165 17.2609 39.6686 16.024 35.166 15.2919Z" fill="#1E2337"/>
</g>
<path d="M32.7602 0C24.2076 0 17.2744 6.93319 17.2744 15.4857C17.2744 24.0383 24.2076 30.9714 32.7602 30.9714C36.1563 30.9714 39.2971 29.8782 41.8499 28.0244L35.1734 21.5532C34.4269 21.8503 33.6126 22.0137 32.7602 22.0137C29.1548 22.0137 26.2321 19.091 26.2321 15.4857C26.2321 11.8804 29.1548 8.95771 32.7602 8.95771C33.6126 8.95771 34.4269 9.1211 35.1734 9.41827C36.4794 9.93816 37.4653 11.1778 38.3106 12.0478L46.3299 20.1191C46.5097 20.2904 46.9461 20.6631 47.262 20.8847C47.4376 21.0079 47.7149 21.1728 47.9574 21.2973C48.2086 21.4262 48.4221 21.5126 48.4221 21.5126C48.4221 21.5126 47.2284 18.9605 47.2284 15.5041C47.2284 12.0478 48.4221 9.49568 48.4221 9.49568L43.3979 4.49202C42.2112 3.30693 40.976 2.24921 39.4614 1.52108C37.4336 0.546194 35.1607 0 32.7602 0Z" fill="url(#paint2_linear_8849_21563)"/>
<path opacity="0.3" fill-rule="evenodd" clip-rule="evenodd" d="M35.1646 21.5625C35.9711 23.3541 37.2333 26.5392 37.2333 30.3214C38.9096 29.8165 40.466 29.0351 41.8496 28.0303L35.1731 21.5591C35.1703 21.5602 35.1674 21.5614 35.1646 21.5625Z" fill="#262D47"/>
<path opacity="0.85" d="M9.87783 23.2478V1.64063L0.906738 1.64062V30.9715H17.7032V23.2478H9.87783Z" fill="white"/>
<defs>
<linearGradient id="paint0_linear_8849_21563" x1="60.6262" y1="4.29768" x2="42.138" y2="28.6588" gradientUnits="userSpaceOnUse">
<stop stop-color="#FF52BC"/>
<stop offset="0.516172" stop-color="#C83E93"/>
<stop offset="1" stop-color="#861F5E"/>
</linearGradient>
<linearGradient id="paint1_linear_8849_21563" x1="60.626" y1="4.29768" x2="42.1378" y2="28.6588" gradientUnits="userSpaceOnUse">
<stop stop-color="#FF52BC"/>
<stop offset="0.516172" stop-color="#C83E93"/>
<stop offset="1" stop-color="#861F5E"/>
</linearGradient>
<linearGradient id="paint2_linear_8849_21563" x1="42.0751" y1="27.7573" x2="21.4435" y2="7.94273" gradientUnits="userSpaceOnUse">
<stop stop-color="#00FFFF"/>
<stop offset="1" stop-color="#01CDFD"/>
</linearGradient>
</defs>
</svg>
