<svg width="18" height="18" viewBox="0 0 14 14" fill="none" xmlns="http://www.w3.org/2000/svg">
<path d="M6.99534 12.6863C6.02868 12.6863 5.05962 12.412 4.21874 11.8557C2.37556 10.6368 1.53621 8.30713 2.17759 6.19006C2.24759 5.95885 2.49193 5.82803 2.72315 5.89825C2.95437 5.96825 3.08496 6.2126 3.01496 6.44381C2.48493 8.19338 3.17859 10.1186 4.70131 11.1257C6.23978 12.1431 8.29625 12.0187 9.70303 10.8232C11.0919 9.64282 11.5495 7.58153 10.7911 5.9221C9.99025 4.16947 8.04031 3.1816 6.15512 3.57316C5.36171 3.73788 4.61096 4.14541 4.04134 4.72116C3.87137 4.89288 3.59443 4.89441 3.42271 4.72444C3.25099 4.55447 3.24946 4.27753 3.41943 4.10581C4.10893 3.4091 5.0174 2.91581 5.97728 2.71653C8.25928 2.24381 10.6181 3.43797 11.5871 5.55853C12.5197 7.59903 11.978 10.0383 10.27 11.4902C9.33684 12.2827 8.16762 12.6863 6.99534 12.6863Z" fill="#32FE9A" stroke="#32FE9A" stroke-width="0.4"/>
<path d="M3.7306 4.85103C3.69319 4.85103 3.65491 4.84622 3.61707 4.83594C3.38366 4.77338 3.24519 4.53363 3.30775 4.30022L4.02 1.64154C4.08257 1.40813 4.32231 1.26879 4.55572 1.33222C4.78913 1.39479 4.9276 1.63454 4.86503 1.86794L4.15278 4.52663C4.1005 4.72197 3.92375 4.85103 3.7306 4.85103Z" fill="#32FE9A" stroke="#32FE9A" stroke-width="0.4"/>
<path d="M6.38928 5.56399C6.35166 5.56399 6.3136 5.55918 6.27575 5.5489L3.61707 4.83621C3.38366 4.77365 3.24519 4.5339 3.30775 4.30049C3.37032 4.06708 3.61138 3.9284 3.84347 3.99118L6.50216 4.70387C6.73557 4.76643 6.87403 5.00618 6.81147 5.23958C6.75919 5.43493 6.58244 5.56399 6.38928 5.56399Z" fill="#32FE9A" stroke="#32FE9A" stroke-width="0.4"/>
</svg>
