<svg width="31" height="15" viewBox="0 0 31 15" fill="none" xmlns="http://www.w3.org/2000/svg">
<rect width="31" height="15" rx="7.5" fill="#DEDFE2"/>
<path d="M11.7718 12L8.41183 3.6H9.88783L11.8918 8.7C11.9878 8.948 12.0718 9.172 12.1438 9.372C12.2238 9.572 12.2918 9.756 12.3478 9.924C12.4038 10.084 12.4558 10.236 12.5038 10.38C12.5518 10.524 12.5998 10.668 12.6478 10.812L12.3358 10.824C12.3918 10.632 12.4518 10.432 12.5158 10.224C12.5798 10.016 12.6518 9.788 12.7318 9.54C12.8198 9.292 12.9238 9.012 13.0438 8.7L14.9038 3.6H16.4158L13.0318 12H11.7718ZM18.418 12L18.022 11.016L20.59 8.124C20.726 7.98 20.866 7.816 21.01 7.632C21.162 7.44 21.306 7.244 21.442 7.044C21.578 6.844 21.686 6.648 21.766 6.456C21.854 6.256 21.898 6.068 21.898 5.892C21.898 5.636 21.846 5.42 21.742 5.244C21.646 5.06 21.502 4.92 21.31 4.824C21.126 4.728 20.902 4.68 20.638 4.68C20.406 4.68 20.178 4.748 19.954 4.884C19.73 5.02 19.526 5.212 19.342 5.46C19.158 5.708 19.014 5.996 18.91 6.324L17.914 5.7C18.05 5.236 18.254 4.84 18.526 4.512C18.806 4.176 19.138 3.92 19.522 3.744C19.914 3.568 20.338 3.48 20.794 3.48C21.266 3.48 21.686 3.58 22.054 3.78C22.422 3.972 22.71 4.244 22.918 4.596C23.126 4.94 23.23 5.34 23.23 5.796C23.23 5.98 23.21 6.168 23.17 6.36C23.13 6.552 23.066 6.752 22.978 6.96C22.89 7.16 22.778 7.372 22.642 7.596C22.506 7.812 22.342 8.04 22.15 8.28C21.966 8.52 21.754 8.772 21.514 9.036L19.606 11.112L19.366 10.752H23.494V12H18.418Z" fill="#23293E"/>
</svg>
