<svg width="7" height="13" viewBox="0 0 7 13" fill="none" xmlns="http://www.w3.org/2000/svg">
<path d="M0.000207201 9.51702C0.00399164 9.64688 0.0581619 9.77016 0.151249 9.86077L2.81792 12.5274C2.91169 12.6212 3.03885 12.6738 3.17143 12.6738C3.30402 12.6738 3.43118 12.6212 3.52495 12.5274L6.19161 9.86077C6.2396 9.8147 6.27791 9.75952 6.3043 9.69845C6.33069 9.63739 6.34463 9.57167 6.34531 9.50515C6.34599 9.43863 6.33338 9.37265 6.30824 9.31106C6.28309 9.24947 6.24591 9.19352 6.19888 9.14648C6.15184 9.09944 6.09589 9.06226 6.0343 9.03712C5.97271 9.01197 5.90672 8.99937 5.8402 9.00004C5.77368 9.00072 5.70797 9.01466 5.6469 9.04105C5.58584 9.06745 5.53066 9.10576 5.48458 9.15374L3.67143 10.9669L3.67143 0.507257C3.67237 0.441002 3.66013 0.37522 3.63542 0.313736C3.61071 0.252251 3.57403 0.196292 3.52751 0.149107C3.48099 0.101922 3.42555 0.0644539 3.36442 0.0388802C3.3033 0.0133065 3.23769 0.000137188 3.17143 0.00013719C3.10517 0.000137193 3.03957 0.0133065 2.97844 0.0388802C2.91731 0.064454 2.86187 0.101922 2.81535 0.149107C2.76883 0.196292 2.73215 0.252252 2.70744 0.313736C2.68274 0.37522 2.67049 0.441002 2.67143 0.507257L2.67143 10.9669L0.85828 9.15374C0.788029 9.08161 0.697637 9.03236 0.598935 9.01245C0.500233 8.99254 0.397819 9.00289 0.305096 9.04215C0.212374 9.0814 0.133662 9.14774 0.079262 9.23247C0.0248621 9.3172 -0.00269156 9.41637 0.000207201 9.51702Z" fill="#9BB0CF"/>
</svg>
